<?xml version="1.0" encoding="utf-8"?>
<!-- Generator: Adobe Illustrator 15.1.0, SVG Export Plug-In . SVG Version: 6.00 Build 0)  -->
<!DOCTYPE svg PUBLIC "-//W3C//DTD SVG 1.1//EN" "http://www.w3.org/Graphics/SVG/1.1/DTD/svg11.dtd">
<svg version="1.1" id="Layer_1" xmlns="http://www.w3.org/2000/svg" xmlns:xlink="http://www.w3.org/1999/xlink" x="0px" y="0px"
	 width="64px" height="64px" viewBox="0 0 64 64" enable-background="new 0 0 64 64" xml:space="preserve">
<g>
	<path fill="#FFFFFF" d="M-5.3-12.2v26.5h35.7C25.1,28.398,11.4,38.399-4.5,38.399c-20.6,0-37.3-16.699-37.3-37.299
		c0-20.601,16.701-37.3,37.3-37.3c9.201,0,17.601,3.299,24.101,8.8l18.698-18.3C27-56.001,12-62.3-4.5-62.3C-39.601-62.3-68-34-68,1
		c0,35.001,28.399,63.3,63.5,63.3c35,0,63.502-28.399,63.502-63.3c0-4.5-0.5-9-1.404-13.2H-5.3z M109.899-10.2v-22H93.798v22H71.7
		V5.801h22.098v22h16.102v-22H132V-10.2H109.899z"/>
</g>
</svg>
