<?xml version="1.0" encoding="utf-8"?>
<!-- Generator: Adobe Illustrator 18.0.0, SVG Export Plug-In . SVG Version: 6.00 Build 0)  -->
<!DOCTYPE svg PUBLIC "-//W3C//DTD SVG 1.1//EN" "http://www.w3.org/Graphics/SVG/1.1/DTD/svg11.dtd">
<svg version="1.1" id="Layer_1" xmlns="http://www.w3.org/2000/svg" xmlns:xlink="http://www.w3.org/1999/xlink" x="0px" y="0px"
	 viewBox="-65.5 -48.5 181 147" enable-background="new -65.5 -48.5 181 147" xml:space="preserve">
<path fill="#FFFFFF" d="M115.5-30.5c-7,3-14,5-21,6c8-5,13-12,16-21c-7,4-15,7-23,9c-7-7-16-12-27-12c-20,0-37,17-37,38c0,3,0,6,1,9
	c-31-2-58-17-76-40c-3,6-5,12-5,19c0,13,7,25,16,31c-6,0-12-2-17-5l0,0c0,18,13,34,30,37c-3,1-6,1-10,1c-2,0-5,0-7-1
	c5,15,18,26,34,26c-13,10-29,16-46,16c-3,0-6,0-9-1c16,11,36,17,57,17c68,0,105-58,105-108c0-2,0-3,0-5
	C104.5-16.5,110.5-23.5,115.5-30.5z"/>
</svg>
