<?xml version="1.0" standalone="no"?>
<!DOCTYPE svg PUBLIC "-//W3C//DTD SVG 1.1//EN" "http://www.w3.org/Graphics/SVG/1.1/DTD/svg11.dtd" >
<svg xmlns="http://www.w3.org/2000/svg">
<metadata>
Created by FontPrep 20130207 at Wed Jun 22 16:06:43 2016
 By Luca Allievi
Copyright (c) 2000 - 2003 Linotype Library GmbH, www.linotype.com. All rights reserved. This software may not be reproduced, used, displayed, modified, disclosed or transferred without the express written approval of Linotype Library GmbH. Frutiger is a trademark of Heidelberger Druckmaschinen AG, exclusively licensed through Linotype Library GmbH, and may be registered in certain jurisdictions. This typeface is original artwork of Adrian Frutiger. The design may be protected in certain jurisdictions.
</metadata>
<defs>
<font id="a1c1d8086204becf8ac3194da08a1064" horiz-adv-x='1024' >
  <font-face 
    font-family="FrutigerNextLT-Regular"
    font-weight="400"
    font-stretch="normal"
    units-per-em="2048"
    panose-1="2 11 5 3 4 5 4 2 2 4"
    ascent="1638"
    descent="-410"
    x-height="1020"
    cap-height="1366"
    bbox="-322 -465 2429 1815"
    underline-thickness="102"
    underline-position="-102"
    unicode-range="U+0020-FB02"
  />
<missing-glyph horiz-adv-x="1024" 
d="M102 1049h820v-1049h-820v1049zM905 16v1016h-786v-1016h786z" />
    <glyph glyph-name=".notdef" horiz-adv-x="1024" 
d="M102 1049h820v-1049h-820v1049zM905 16v1016h-786v-1016h786z" />
    <glyph glyph-name=".null" horiz-adv-x="0" 
 />
    <glyph glyph-name="nonmarkingreturn" horiz-adv-x="555" 
 />
    <glyph glyph-name="space" unicode=" " horiz-adv-x="555" 
 />
    <glyph glyph-name="exclam" unicode="!" horiz-adv-x="548" 
d="M340 346h-131l-27 1020h185zM186 0v182h176v-182h-176z" />
    <glyph glyph-name="quotedbl" unicode="&#x22;" horiz-adv-x="849" 
d="M504 940v426h137v-426h-137zM209 940v426h137v-426h-137z" />
    <glyph glyph-name="numbersign" unicode="#" 
d="M981 537v-109h-184l-64 -428h-112l63 428h-336l-65 -428h-111l64 428h-168v109h184l47 292h-168v109h184l66 428h113l-66 -428h336l65 428h113l-65 -428h167v-109h-184l-47 -292h168zM412 829l-47 -292h335l48 292h-336z" />
    <glyph glyph-name="dollar" unicode="$" 
d="M874 1198q-97 53 -276 53q-180 0 -227 -77.5t-47 -129.5q0 -84 57 -138.5t147 -98.5l144 -76q138 -75 212 -155t74 -222t-99 -242t-263 -126v-207h-113v198q-173 0 -311 58l10 158q128 -80 325 -80t242.5 93.5t45.5 149.5q0 92 -58 145t-186 126l-141 75
q-115 63 -181.5 137.5t-66.5 188.5q0 219 138 279.5t208 70.5v207h113v-199q146 0 266 -43z" />
    <glyph glyph-name="percent" unicode="%" horiz-adv-x="1843" 
d="M1710 398q0 -168 -71 -294.5t-245 -126.5t-244.5 124t-70.5 298q0 276 112 349t205 73t154.5 -40t110.5 -127.5t49 -255.5zM551 -49h-121l868 1464h121zM695 668.5q-71 -125.5 -246 -125.5t-245.5 124t-70.5 298q0 275 112.5 348t206.5 73t155 -39.5t110 -127t49 -256.5
t-71 -294.5zM1212 490.5q0 -222.5 22.5 -281.5t59.5 -91t100.5 -32t99.5 32t54.5 79t23.5 101t5 146.5t-34.5 180.5t-147.5 88q-183 0 -183 -222.5zM268 1053.5q0 -224.5 22.5 -281.5t59.5 -89t100.5 -32t99.5 32t54.5 79t23.5 101.5t5 146t-34.5 180t-147.5 88.5
q-183 0 -183 -224.5z" />
    <glyph glyph-name="ampersand" unicode="&#x26;" horiz-adv-x="1316" 
d="M938 1188q-156 72 -301 72t-241.5 -65t-96.5 -177q0 -204 133 -225t201 -21h276v162h154v-162h213v-127h-213v-608q-194 -60 -430 -60q-357 0 -438.5 138.5t-81.5 230.5q0 163 96 257t240 104q-145 14 -224.5 90.5t-79.5 220.5q0 173 143 270.5t324 97.5t334 -57z
M673 106q108 0 236 41v498h-276q-252 0 -307.5 -100.5t-55.5 -178.5t32 -129t83 -79.5t115.5 -40t172.5 -11.5z" />
    <glyph glyph-name="quotesingle" unicode="'" horiz-adv-x="555" 
d="M209 940v426h137v-426h-137z" />
    <glyph glyph-name="parenleft" unicode="(" horiz-adv-x="550" 
d="M106 685q0 297 320 792h113q-141 -271 -188.5 -399t-71 -239.5t-23.5 -280t73.5 -366.5t209.5 -454h-113q-153 237 -236.5 443.5t-83.5 503.5z" />
    <glyph glyph-name="parenright" unicode=")" horiz-adv-x="550" 
d="M446 557.5q0 -171.5 -83 -377t-236 -442.5h-113q142 273 213.5 465.5t71.5 404.5q0 293 -115.5 529.5t-169.5 339.5h113q145 -226 205.5 -373.5t87 -261t26.5 -285z" />
    <glyph glyph-name="asterisk" unicode="*" horiz-adv-x="821" 
d="M494 1014l147 -226l-111 -65l-118 229l-119 -229l-111 65l150 226l-238 76l41 124l227 -104l-16 256h133l-18 -256l225 104l41 -124z" />
    <glyph glyph-name="plus" unicode="+" 
d="M623 440v-440h-136v440h-446v123h446v441h136v-441h448v-123h-448z" />
    <glyph glyph-name="comma" unicode="," horiz-adv-x="555" 
d="M199 -262h-121l119 444h172z" />
    <glyph glyph-name="hyphen" unicode="-" horiz-adv-x="655" 
d="M80 567v135h495v-135h-495z" />
    <glyph glyph-name="hyphen" unicode="&#xad;" horiz-adv-x="655" 
d="M80 567v135h495v-135h-495z" />
    <glyph glyph-name="period" unicode="." horiz-adv-x="555" 
d="M190 0v182h177v-182h-177z" />
    <glyph glyph-name="slash" unicode="/" horiz-adv-x="593" 
d="M102 0h-145l537 1366h143z" />
    <glyph glyph-name="zero" unicode="0" 
d="M1020 681q0 -114 -19.5 -238t-70.5 -227t-141.5 -171t-234.5 -68t-235.5 67t-159 204.5t-67.5 433.5q0 464 161 584t302 120t232.5 -67.5t142.5 -172t70.5 -228t19.5 -237.5zM854 683q0 81 -8 180.5t-39 186.5t-90.5 145t-161.5 58t-161.5 -59t-97.5 -169t-38 -347
q0 -236 37 -343.5t96.5 -165.5t162.5 -58t162.5 59t90.5 146t39 186.5t8 180.5z" />
    <glyph glyph-name="one" unicode="1" 
d="M537 0v1190l-228 -195l-78 107l324 264h141v-1366h-159z" />
    <glyph glyph-name="two" unicode="2" 
d="M156 1298q185 88 356 88t289.5 -91t118.5 -269q0 -218 -165 -397.5t-223 -243.5l-229 -252h645v-133h-844v129l306 332q49 53 196.5 213t147.5 344q0 104 -74 167.5t-180 63.5q-161 0 -332 -92z" />
    <glyph glyph-name="three" unicode="3" 
d="M477 1386q297 0 375 -122.5t78 -216.5q0 -133 -81 -219.5t-204 -116.5q134 -17 222.5 -103.5t88.5 -204.5q0 -214 -148.5 -320t-355.5 -106t-354 54l13 141q129 -61 333 -61q142 0 243 73.5t101 205.5t-98 191.5t-227 59.5h-187v129h160q225 0 277.5 98.5t52.5 165.5
q0 118 -93.5 168.5t-235.5 50.5t-287 -67l-13 139q172 61 340 61z" />
    <glyph glyph-name="four" unicode="4" 
d="M864 309v-309h-157v309h-654v150l617 907h194v-924h197v-133h-197zM707 442v775l-521 -775h521z" />
    <glyph glyph-name="five" unicode="5" 
d="M509 836q205 0 332.5 -106t127.5 -309t-149 -323.5t-352 -120.5t-327 50l13 149q122 -63 282 -63q159 0 263 81.5t104 227.5t-95 217.5t-234 71.5q-140 0 -300 -54l14 709h715v-131h-565l-12 -426q80 27 183 27z" />
    <glyph glyph-name="six" unicode="6" 
d="M563 -23q-448 0 -448 654q0 527 224 642.5t394 115.5q105 0 232 -35l-13 -142q-103 43 -230 43q-235 0 -344.5 -163t-109.5 -404q47 82 140.5 127t188.5 45q194 0 310.5 -116.5t116.5 -317.5t-127 -325t-334 -124zM580 729q-137 0 -217 -81t-80 -216q0 -216 105.5 -269.5
t176.5 -53.5q141 0 219 86t78 222t-72.5 224t-209.5 88z" />
    <glyph glyph-name="seven" unicode="7" 
d="M109 1229v137h858v-133l-527 -1233h-180l547 1229h-698z" />
    <glyph glyph-name="eight" unicode="8" 
d="M127 1065q0 154 134 237.5t299 83.5t295 -80t130 -241q0 -111 -80.5 -201.5t-204.5 -152.5q161 -61 220 -117.5t85.5 -115t26.5 -144.5t-43 -154.5t-144 -135.5t-291 -67q-191 0 -332.5 95.5t-141.5 269.5q0 136 82.5 223.5t238.5 145.5q-274 125 -274 354zM823 1052
q0 54 -23.5 93t-61.5 63.5t-86 36.5t-126 12t-157.5 -54.5t-79.5 -151.5q0 -144 111.5 -205.5t156.5 -81.5q98 41 156.5 93t84 96.5t25.5 98.5zM785 527q-81 60 -230 130q-133 -48 -193.5 -96.5t-88 -94.5t-27.5 -108t25.5 -109.5t68.5 -78.5t99.5 -46t115.5 -15t115.5 15
t126 65t69.5 164t-81 174z" />
    <glyph glyph-name="nine" unicode="9" 
d="M1001 813q0 -836 -622 -836q-84 0 -234 35l13 142q99 -43 230 -43q238 0 332 145t120 403q-53 -84 -139.5 -122.5t-183.5 -38.5q-195 0 -312 119t-117 317t131 325t342 127t325.5 -163.5t114.5 -409.5zM250 946q0 -222 103.5 -270.5t176.5 -48.5q137 0 217 83t80 221
t-72.5 231t-210.5 93t-216 -85t-78 -224z" />
    <glyph glyph-name="colon" unicode=":" horiz-adv-x="555" 
d="M190 838v182h177v-182h-177zM190 0v182h177v-182h-177z" />
    <glyph glyph-name="semicolon" unicode=";" horiz-adv-x="555" 
d="M188 838v182h177v-182h-177zM199 -262h-121l119 444h172z" />
    <glyph glyph-name="semicolon" unicode="&#x37e;" horiz-adv-x="555" 
d="M188 838v182h177v-182h-177zM199 -262h-121l119 444h172z" />
    <glyph glyph-name="less" unicode="&#x3c;" 
d="M41 432v133l1030 414v-135l-876 -346l876 -342v-133z" />
    <glyph glyph-name="equal" unicode="=" 
d="M41 633v123h1030v-123h-1030zM41 244v123h1030v-123h-1030z" />
    <glyph glyph-name="greater" unicode="&#x3e;" 
d="M39 23v133l876 342l-876 346v135l1030 -414v-133z" />
    <glyph glyph-name="question" unicode="?" horiz-adv-x="831" 
d="M329 1386q205 0 315 -91t110 -263t-170 -328.5t-170 -326.5v-31h-146v27q0 149 59.5 230t100.5 122t100.5 113.5t59.5 186.5q0 113 -69.5 168.5t-184.5 55.5t-264 -53l-13 139q159 51 272 51zM252 0v182h178v-182h-178z" />
    <glyph glyph-name="at" unicode="@" horiz-adv-x="1585" 
d="M104 326q0 156 60.5 287.5t163 226t240 147.5t274.5 53q273 0 456 -157.5t183 -409.5q0 -207 -115 -340t-305 -133q-68 0 -125 30.5t-64 108.5q-99 -139 -254 -139q-102 0 -150 67.5t-48 164.5t38 189.5t144.5 204t306.5 111.5q80 0 176 -28l-108 -506q-2 -10 -2 -31
q0 -78 112 -78q137 0 201 115.5t64 245.5q0 233 -149 353t-369 120q-125 0 -235 -47t-238 -177.5t-128 -383.5t155.5 -395t412.5 -142q190 0 424 84l12 -119q-234 -78 -461 -78q-296 0 -484 182.5t-188 473.5zM645 96q90 0 160 83.5t94 193.5l57 260q-31 8 -89 8t-122.5 -37
t-137 -130t-72.5 -235q0 -143 110 -143z" />
    <glyph glyph-name="A" unicode="A" horiz-adv-x="1298" 
d="M1122 0l-141 371h-670l-145 -371h-158l545 1366h190l547 -1366h-168zM647 1235l-289 -733h574z" />
    <glyph glyph-name="B" unicode="B" horiz-adv-x="1124" 
d="M1014 364q0 -92 -83 -228t-448 -136h-309v1366h363q301 0 369.5 -121t68.5 -233t-70.5 -190.5t-191.5 -106.5q132 -21 194 -84.5t84.5 -119t22.5 -147.5zM809 1014q0 122 -81.5 173.5t-207.5 51.5h-186v-469h153q225 0 273.5 88t48.5 156zM846 386q0 263 -389 263h-123
v-522h145q248 0 307.5 88t59.5 171z" />
    <glyph glyph-name="C" unicode="C" horiz-adv-x="1206" 
d="M104 677q0 314 197.5 511.5t505.5 197.5q199 0 321 -53l-12 -145q-126 59 -277 59q-273 0 -419 -158.5t-146 -410.5t142 -406.5t397 -154.5q187 0 307 59l13 -137q-120 -62 -304 -62q-344 0 -534.5 193t-190.5 507z" />
    <glyph glyph-name="D" unicode="D" horiz-adv-x="1333" 
d="M1022 167.5q-207 -167.5 -567 -167.5h-281v1366h356q332 0 515.5 -176t183.5 -516q0 -339 -207 -506.5zM1059 682q0 258 -137.5 404.5t-397.5 146.5h-188v-1100h115q451 0 529.5 199.5t78.5 349.5z" />
    <glyph glyph-name="E" unicode="E" horiz-adv-x="995" 
d="M174 0v1366h705v-133h-543v-467h516v-129h-516v-504h565v-133h-727z" />
    <glyph glyph-name="F" unicode="F" horiz-adv-x="933" 
d="M336 1233v-471h502v-129h-502v-633h-162v1366h686v-133h-524z" />
    <glyph glyph-name="G" unicode="G" horiz-adv-x="1370" 
d="M807 -23q-322 0 -512.5 192.5t-190.5 508.5q0 315 196.5 511.5t506.5 196.5q220 0 373 -67l-13 -143q-130 73 -366 73t-381.5 -157.5t-145.5 -412.5q0 -254 140.5 -409t394.5 -155q163 0 276 47v444h-294v129h450v-672q-199 -86 -434 -86z" />
    <glyph glyph-name="H" unicode="H" horiz-adv-x="1337" 
d="M1001 0v633h-665v-633h-162v1366h162v-592h665v592h164v-1366h-164z" />
    <glyph glyph-name="I" unicode="I" horiz-adv-x="507" 
d="M174 0v1366h162v-1366h-162z" />
    <glyph glyph-name="J" unicode="J" horiz-adv-x="653" 
d="M128 119q115 0 161.5 69.5t46.5 173.5v1004h162v-1008q0 -268 -122 -324.5t-209 -56.5t-159 27l12 133q44 -18 108 -18z" />
    <glyph glyph-name="K" unicode="K" horiz-adv-x="1200" 
d="M336 0h-162v1366h162v-616l598 616h201l-646 -641l703 -725h-217l-639 682v-682z" />
    <glyph glyph-name="L" unicode="L" horiz-adv-x="925" 
d="M174 0v1366h162v-1227h553v-139h-715z" />
    <glyph glyph-name="M" unicode="M" horiz-adv-x="1779" 
d="M1450 0v1233l-483 -1233h-158l-483 1233v-1233h-152v1366h250l469 -1186l465 1186h250v-1366h-158z" />
    <glyph glyph-name="N" unicode="N" horiz-adv-x="1384" 
d="M326 0h-152v1366h227l658 -1198v1198h151v-1366h-227l-657 1198v-1198z" />
    <glyph glyph-name="O" unicode="O" horiz-adv-x="1435" 
d="M1174 179.5q-159 -202.5 -457 -202.5q-299 0 -456 197.5t-157 503.5t160.5 507t458.5 201t454 -198t156 -502t-159 -506.5zM1161 682q0 231 -108.5 400t-332.5 169t-335 -172t-111 -397.5t113 -397t335 -171.5t330.5 169t108.5 400z" />
    <glyph glyph-name="P" unicode="P" horiz-adv-x="1040" 
d="M983 971q0 -190 -131 -293t-317 -103h-199v-575h-162v1366h373q300 0 368 -147.5t68 -247.5zM815 973q0 129 -78 195.5t-202 66.5h-201v-528h104q178 0 246 35.5t99.5 88t31.5 142.5z" />
    <glyph glyph-name="Q" unicode="Q" horiz-adv-x="1435" 
d="M719 -23q-301 0 -458 197.5t-157 503.5t160.5 507t458.5 201t454 -198t156 -525t-131 -460t-219 -172l289 -293h-211l-242 248q-56 -9 -100 -9zM1161 682q0 231 -108.5 400t-332.5 169t-335 -172t-111 -397.5t113 -397t335 -171.5t330.5 169t108.5 400z" />
    <glyph glyph-name="R" unicode="R" horiz-adv-x="1122" 
d="M446 631h-110v-631h-162v1366h377q181 0 302.5 -89t121.5 -267q0 -124 -90.5 -212.5t-218.5 -105.5q76 -16 116.5 -61t69.5 -113l223 -518h-182l-188 451q-48 110 -83.5 136.5t-74.5 35t-101 8.5zM807 1035.5q0 99.5 -84.5 149.5t-237.5 50h-151v-473h143q218 0 274 87
t56 186.5z" />
    <glyph glyph-name="S" unicode="S" horiz-adv-x="991" 
d="M553 1251q-197 0 -244 -77.5t-47 -129.5q0 -84 58.5 -138t146.5 -97l141 -76q143 -78 217 -157.5t74 -190.5q0 -199 -135 -303.5t-328 -104.5t-330 58l11 158q128 -80 325 -80t243 93.5t46 149.5q0 92 -63 149.5t-181 119.5l-141 75q-118 65 -184 139.5t-66 177.5
q0 183 136 276t305 93t290 -43l-12 -145q-104 53 -262 53z" />
    <glyph glyph-name="T" unicode="T" horiz-adv-x="1015" 
d="M590 1227v-1227h-164v1227h-406v139h977v-139h-407z" />
    <glyph glyph-name="U" unicode="U" horiz-adv-x="1331" 
d="M1176 483q0 -231 -137.5 -368.5t-372 -137.5t-371.5 133t-137 371v885h161v-883q0 -166 89.5 -266t256.5 -100t258 99t91 267v883h162v-883z" />
    <glyph glyph-name="V" unicode="V" horiz-adv-x="1224" 
d="M700 0h-178l-510 1366h172l430 -1210l437 1210h161z" />
    <glyph glyph-name="W" unicode="W" horiz-adv-x="1888" 
d="M1479 0h-193l-338 1206l-340 -1206h-194l-391 1366h165l330 -1204l340 1204h189l337 -1204l330 1204h154z" />
    <glyph glyph-name="X" unicode="X" horiz-adv-x="1232" 
d="M1024 0l-406 621l-421 -621h-181l506 717l-456 649h188l373 -549l370 549h177l-453 -649l498 -717h-195z" />
    <glyph glyph-name="Y" unicode="Y" horiz-adv-x="1179" 
d="M670 0h-162v569l-504 797h180l410 -666l410 666h174l-508 -797v-569z" />
    <glyph glyph-name="Z" unicode="Z" horiz-adv-x="1011" 
d="M53 0v135l713 1096h-688v135h864v-135l-706 -1096h722v-135h-905z" />
    <glyph glyph-name="bracketleft" unicode="[" horiz-adv-x="552" 
d="M186 -262v1739h338v-107h-196v-1526h196v-106h-338z" />
    <glyph glyph-name="backslash" unicode="\" horiz-adv-x="593" 
d="M494 0l-537 1366h145l535 -1366h-143z" />
    <glyph glyph-name="bracketright" unicode="]" horiz-adv-x="552" 
d="M31 -262v106h198v1526h-198v107h340v-1739h-340z" />
    <glyph glyph-name="asciicircum" unicode="^" horiz-adv-x="1228" 
d="M885 510l-273 700l-266 -700h-143l348 856h129l346 -856h-141z" />
    <glyph glyph-name="underscore" unicode="_" horiz-adv-x="1024" 
d="M0 -256v102h1024v-102h-1024z" />
    <glyph glyph-name="grave" unicode="`" horiz-adv-x="446" 
d="M195 1198l-199 279h174l145 -279h-120z" />
    <glyph glyph-name="a" unicode="a" horiz-adv-x="1009" 
d="M860 217q0 -138 12 -217h-145l-6 164q-43 -90 -132 -138.5t-171 -48.5q-161 0 -254.5 74.5t-93.5 214.5q0 185 153 270t410 85h80v49q0 117 -51.5 184.5t-199.5 67.5t-272 -82l-12 133q152 67 328 67q354 0 354 -381v-442zM713 512h-29q-193 0 -281 -29.5t-134 -78
t-46 -112.5t32.5 -129t170.5 -65q287 0 287 353v61z" />
    <glyph glyph-name="b" unicode="b" horiz-adv-x="1112" 
d="M150 0v1477h149v-629q39 90 128 141t195 51q206 0 305 -148t99 -374t-102.5 -383.5t-319.5 -157.5t-313 193l-4 -170h-137zM801 800q-63 113 -215 113q-153 0 -223 -122t-70 -279t69.5 -282.5t221.5 -125.5q151 0 215.5 120t64.5 291.5t-63 284.5z" />
    <glyph glyph-name="c" unicode="c" horiz-adv-x="907" 
d="M88 514q0 231 136 378.5t366 147.5q127 0 250 -43l-13 -133q-109 51 -207 51q-182 0 -277 -109.5t-95 -286.5t94 -297t262 -120q114 0 225 48l11 -134q-112 -39 -247 -39q-246 0 -375.5 153t-129.5 384z" />
    <glyph glyph-name="d" unicode="d" horiz-adv-x="1112" 
d="M823 170q-96 -193 -313 -193t-319.5 157.5t-102.5 379.5q0 358 152 442t258 84t192 -51t125 -141v629h150v-1153q0 -124 10 -324h-139zM530 913q-282 0 -282 -335t99 -404.5t183 -69.5t138.5 39t88.5 98.5t48 131t14 183t-70.5 234.5t-218.5 123z" />
    <glyph glyph-name="e" unicode="e" horiz-adv-x="1005" 
d="M172 164q-84 105 -84 332q0 226 118.5 385t319.5 159t300.5 -144t99.5 -366v-61h-682q0 -159 87 -265t243 -106t286 72l12 -139q-134 -54 -286 -54t-241 41t-173 146zM774 580q0 222 -90 282t-188.5 60t-175 -110t-76.5 -232h530z" />
    <glyph glyph-name="f" unicode="f" horiz-adv-x="647" 
d="M537 1372q-98 0 -123 -64t-25 -151v-137h229v-119h-227v-901h-149v901h-199v119h199v131q0 146 35.5 212.5t90 100t148.5 33.5t131 -20l-12 -123q-41 18 -98 18z" />
    <glyph glyph-name="g" unicode="g" horiz-adv-x="1112" 
d="M504 1040q223 0 319 -192v172h142v-969q0 -376 -176.5 -446t-311.5 -70t-307 53l12 146q144 -74 295 -74q258 0 298 152.5t40 236.5v131q-47 -86 -133 -133t-190 -47t-254 85t-150 436q0 350 151.5 434.5t264.5 84.5zM748.5 790q-70.5 123 -222.5 123t-215 -116t-63 -285
q0 -254 98 -319.5t182 -65.5t139.5 36t103.5 115t48 234t-70.5 278z" />
    <glyph glyph-name="h" unicode="h" horiz-adv-x="1103" 
d="M807 0v606q0 145 -33 200.5t-78.5 81t-121.5 25.5q-144 0 -209.5 -104.5t-65.5 -257.5v-551h-149v1477h149v-629q98 193 315 192q340 0 340 -407v-633h-147z" />
    <glyph glyph-name="i" unicode="i" horiz-adv-x="446" 
d="M150 1247v178h149v-178h-149zM150 0v1020h149v-1020h-149z" />
    <glyph glyph-name="j" unicode="j" horiz-adv-x="458" 
d="M162 1247v178h147v-178h-147zM33 -336q75 0 102 47.5t27 143.5v1165h147v-1188q0 -140 -51.5 -218.5t-189.5 -78.5q-75 0 -121 12l12 129q33 -12 74 -12z" />
    <glyph glyph-name="k" unicode="k" horiz-adv-x="980" 
d="M299 0h-149v1477h149v-879l432 422h187l-469 -451l524 -569h-197l-477 532v-532z" />
    <glyph glyph-name="l" unicode="l" horiz-adv-x="446" 
d="M150 0v1477h149v-1477h-149z" />
    <glyph glyph-name="m" unicode="m" horiz-adv-x="1658" 
d="M150 780q0 132 -11 240h137l7 -176q102 197 305 196q119 0 195 -61t102 -152q57 148 158 180.5t165 32.5t123.5 -26.5t119.5 -96.5t60 -223v-694h-149v668q0 172 -72.5 208.5t-136.5 36.5q-122 0 -185 -105t-63 -257v-551h-149v668q0 245 -201 245q-130 0 -193 -105
t-63 -257v-551h-149v780z" />
    <glyph glyph-name="n" unicode="n" horiz-adv-x="1103" 
d="M150 780q0 132 -11 240h137l7 -176q109 197 329 196q185 0 263.5 -107t78.5 -300v-633h-147v604q0 144 -33 201t-78.5 82.5t-121.5 25.5q-143 0 -209 -103.5t-66 -260.5v-549h-149v780z" />
    <glyph glyph-name="o" unicode="o" horiz-adv-x="1128" 
d="M216 890q128 150 355 150t349 -145.5t122 -377.5t-124 -386t-352.5 -154t-353 152t-124.5 381.5t128 379.5zM805 799q-78 116 -238 116t-239.5 -118t-79.5 -335.5t116.5 -288.5t200.5 -71t144.5 37t117 124t56.5 253q0 167 -78 283z" />
    <glyph glyph-name="p" unicode="p" horiz-adv-x="1112" 
d="M150 678q0 106 -11 342h142l8 -178q62 139 168 168.5t155 29.5q216 0 315 -148t99 -374t-102.5 -383.5t-313.5 -157.5q-100 0 -186 49.5t-125 139.5v-608h-149v1120zM801 800q-63 113 -215 113q-153 0 -223 -122t-70 -279t69.5 -282.5t221.5 -125.5q151 0 215.5 120
t64.5 291.5t-63 284.5z" />
    <glyph glyph-name="q" unicode="q" horiz-adv-x="1112" 
d="M825 1020h140v-1462h-150v612q-39 -90 -126 -141.5t-193 -51.5t-185.5 47.5t-151 157.5t-71.5 333t101 374t320 151q220 0 316 -192v172zM749 791q-70 122 -223 122t-215.5 -113t-62.5 -335t99 -291.5t183 -69.5t138.5 39t102.5 124.5t48 243.5t-70 280z" />
    <glyph glyph-name="r" unicode="r" horiz-adv-x="671" 
d="M559 1040q51 0 82 -8l-8 -149q-41 12 -101 12t-146.5 -67.5t-86.5 -321.5v-506h-149v780q0 132 -11 240h137l9 -193q29 82 103 147.5t171 65.5z" />
    <glyph glyph-name="s" unicode="s" horiz-adv-x="796" 
d="M229 764q0 -47 37 -79t91.5 -57.5t210 -89.5t155.5 -264q0 -138 -105.5 -217.5t-263.5 -79.5t-280 48l12 139q118 -64 270 -64q86 0 149.5 42t63.5 116t-36.5 113t-91 67.5t-210 87.5t-155.5 236q0 137 105 207.5t244.5 70.5t254.5 -45l-12 -125q-107 50 -239 50
t-166 -54.5t-34 -101.5z" />
    <glyph glyph-name="t" unicode="t" horiz-adv-x="671" 
d="M469 -23q-149 0 -195.5 87t-46.5 251v588h-192v117h192v229l148 51v-280h231v-117h-231v-627q0 -68 25.5 -119t105.5 -51q50 0 115 27l8 -125q-76 -31 -160 -31z" />
    <glyph glyph-name="u" unicode="u" horiz-adv-x="1095" 
d="M485 -23q-340 0 -340 412v631h150v-604q0 -143 31.5 -200.5t75.5 -83.5t121 -26q143 0 209.5 104t66.5 261v549h147v-780q0 -142 10 -240h-137l-4 176q-108 -199 -330 -199z" />
    <glyph glyph-name="v" unicode="v" horiz-adv-x="907" 
d="M541 0h-176l-342 1020h161l273 -889l274 889h156z" />
    <glyph glyph-name="w" unicode="w" horiz-adv-x="1579" 
d="M1237 0h-182l-260 879l-265 -879h-180l-323 1020h159l260 -881l265 881h178l264 -881l258 881h143z" />
    <glyph glyph-name="x" unicode="x" horiz-adv-x="925" 
d="M725 0l-258 440l-274 -440h-166l352 535l-318 485h175l237 -391l232 391h165l-313 -485l344 -535h-176z" />
    <glyph glyph-name="y" unicode="y" horiz-adv-x="909" 
d="M171 -338q117 0 187 236l21 67l-354 1055h161l275 -879l272 879h156l-410 -1198q-45 -133 -94 -187.5t-95 -77t-102 -22.5t-125 16l13 130q55 -19 95 -19z" />
    <glyph glyph-name="z" unicode="z" horiz-adv-x="868" 
d="M61 0v121l576 780h-553v119h721v-121l-576 -780h580v-119h-748z" />
    <glyph glyph-name="braceleft" unicode="{" horiz-adv-x="557" 
d="M418 -262q-97 0 -149 71t-52 171v327q0 158 -53 204t-101 46v102q83 0 118.5 77.5t35.5 176.5v324q0 158 76 199t127 41h121v-103h-95q-90 0 -90 -176v-317q0 -88 -32.5 -145.5t-64.5 -86t-75 -41.5q121 -34 146.5 -133.5t25.5 -140.5v-314q0 -115 31 -147.5t59 -32.5h95
v-102h-123z" />
    <glyph glyph-name="bar" unicode="|" horiz-adv-x="442" 
d="M147 -442v2029h150v-2029h-150z" />
    <glyph glyph-name="braceright" unicode="}" horiz-adv-x="557" 
d="M494 557q-84 0 -118 -76t-34 -174v-327q0 -160 -76 -201t-127 -41h-123v102h95q90 0 90 180v314q0 91 44 171t128 103q-82 23 -127 102t-45 171v317q0 111 -31 143.5t-59 32.5h-95v103h121q95 0 150 -71t55 -169v-324q0 -162 52 -208t100 -46v-102z" />
    <glyph glyph-name="asciitilde" unicode="~" 
d="M844 487q123 0 162 162h88q-14 -187 -101 -234.5t-153 -47.5t-141.5 22.5t-149.5 50t-145.5 51t-138.5 23.5t-106.5 -48t-49.5 -114h-93q29 197 110.5 242t147.5 45t142 -23.5t150.5 -52t146 -52.5t131.5 -24z" />
    <glyph glyph-name="Euro" 
d="M828 1249q-107 0 -235 -58.5t-183 -320.5h551l-23 -102h-545q-4 -46 -4 -87t4 -85h512l-22 -102h-473q30 -165 131 -272t251 -107q151 0 234 51l12 -139q-84 -50 -222 -50q-246 0 -391.5 144t-182.5 373h-183l23 102h147q-4 46 -4 89t4 83h-168l23 102h160
q43 225 186.5 370.5t364.5 145.5q148 0 258 -55l-29 -133q-89 51 -196 51z" />
    <glyph glyph-name="Euro" unicode="&#x20ac;" 
d="M828 1249q-107 0 -235 -58.5t-183 -320.5h551l-23 -102h-545q-4 -46 -4 -87t4 -85h512l-22 -102h-473q30 -165 131 -272t251 -107q151 0 234 51l12 -139q-84 -50 -222 -50q-246 0 -391.5 144t-182.5 373h-183l23 102h147q-4 46 -4 89t4 83h-168l23 102h160
q43 225 186.5 370.5t364.5 145.5q148 0 258 -55l-29 -133q-89 51 -196 51z" />
    <glyph glyph-name="nonbreakingspace" unicode="&#xa0;" horiz-adv-x="555" 
 />
    <glyph glyph-name="exclamdown" unicode="&#xa1;" horiz-adv-x="548" 
d="M186 838v182h176v-182h-176zM182 -346l27 1022h131l27 -1022h-185z" />
    <glyph glyph-name="cent" unicode="&#xa2;" 
d="M671 307q89 0 203 47l13 -131q-109 -39 -219 -39v-184h-103v188q-181 23 -286 164t-105 335t106 328.5t285 164.5v186h103v-182q88 0 217 -43l-13 -131q-109 51 -195 51q-167 0 -256 -104.5t-89 -265.5t87.5 -272.5t251.5 -111.5z" />
    <glyph glyph-name="sterling" unicode="&#xa3;" 
d="M487 907v-104h344v-129h-344v-545h492v-129h-813v129h164v545h-156v129h156v117q0 334 158.5 400t245.5 66q174 0 263 -40l-18 -138q-75 45 -186 45t-168.5 -28.5t-97.5 -91.5t-40 -226z" />
    <glyph glyph-name="currency" unicode="&#xa4;" 
d="M989 677q0 -140 -88 -255l131 -135l-84 -82l-131 133q-115 -92 -256 -92t-266 90l-129 -129l-84 82l129 131q-88 115 -88 260t88 264l-131 131l84 82l129 -131q115 88 259 88t267 -86l129 127l84 -82l-131 -129q88 -127 88 -267zM864 679.5q0 127.5 -91 218.5t-217 91
t-217 -88.5t-91 -218t90 -219.5t216.5 -90t218 89.5t91.5 217z" />
    <glyph glyph-name="yen" unicode="&#xa5;" 
d="M938 678v-115h-307v-145h307v-115h-307v-303h-160v303h-299v115h299v145h-299v115h244l-357 688h168l330 -661l328 661h168l-369 -688h254z" />
    <glyph glyph-name="brokenbar" unicode="&#xa6;" horiz-adv-x="442" 
d="M147 776v811h150v-811h-150zM147 -442v813h150v-813h-150z" />
    <glyph glyph-name="section" unicode="&#xa7;" 
d="M858 1212q-115 52 -227 52t-164.5 -28t-76 -59.5t-23.5 -75.5t15 -73t41 -49.5t59.5 -35.5t68.5 -32l194 -88q98 -46 145.5 -100t47.5 -160t-58.5 -166.5t-88.5 -91.5q133 -87 133 -238q0 -152 -121.5 -236.5t-286.5 -84.5t-336 57l13 129q137 -63 308 -63t220 72.5
t49 114.5q0 68 -43 104.5t-125 75.5l-235 102q-80 35 -133.5 99.5t-53.5 158.5q0 130 172 268q-139 74 -139 223.5t109 224t262 74.5t286 -43zM793 546q0 103 -70 139t-98 48l-170 74q-53 -29 -91 -84t-38 -115t42 -98.5t93 -60.5l221 -99q111 116 111 196z" />
    <glyph glyph-name="dieresis" unicode="&#xa8;" horiz-adv-x="446" 
d="M315 1247v178h136v-178h-136zM-2 1247v178h135v-178h-135z" />
    <glyph glyph-name="copyright" unicode="&#xa9;" horiz-adv-x="1619" 
d="M1516 684q0 -145 -55.5 -274t-151 -225.5t-224.5 -152t-274 -55.5t-274 55.5t-224.5 152t-151 225.5t-55.5 274t55.5 273t151 223.5t224.5 150.5t274 55t274 -55t224.5 -150.5t151 -223.5t55.5 -273zM1393 684q0 121 -45 228.5t-124 188.5t-184.5 128t-228.5 47
t-228.5 -47t-184.5 -128t-124 -188.5t-45 -228.5t45 -229.5t124 -190.5t184.5 -129t228.5 -47t229.5 47t184.5 129t123 190.5t45 229.5zM889 379q78 0 180 43l8 -111q-94 -39 -249.5 -39t-276.5 113t-121 298q0 186 126.5 299.5t324.5 113.5q98 0 196 -35l-8 -111
q-100 39 -180 39q-158 0 -245 -85t-87 -221t86 -220t246 -84z" />
    <glyph glyph-name="ordfeminine" unicode="&#xaa;" horiz-adv-x="745" 
d="M614 897q0 -94 7 -137h-117l-4 108q-29 -55 -89.5 -87.5t-140.5 -32.5t-142 40.5t-62 143.5t102 157t266 54h64v20q0 125 -156 125q-110 0 -192 -49l-7 107q112 40 209 40q262 0 262 -229v-260zM188 921q0 -77 142 -77q60 0 109.5 52t56.5 130l2 27h-23
q-190 0 -238.5 -44t-48.5 -88z" />
    <glyph glyph-name="guillemotleft" unicode="&#xab;" horiz-adv-x="897" 
d="M682 113l-268 409l268 406h135l-258 -406l258 -409h-135zM330 113l-269 409l269 406h135l-258 -406l258 -409h-135z" />
    <glyph glyph-name="logicalnot" unicode="&#xac;" horiz-adv-x="1228" 
d="M1001 244v389h-901v123h1030v-512h-129z" />
    <glyph glyph-name="registered" unicode="&#xae;" horiz-adv-x="1615" 
d="M1513 684q0 -145 -55 -274t-150.5 -225.5t-224.5 -152t-274 -55.5t-274 55.5t-224.5 152t-151 225.5t-55.5 274t55.5 273t151 223.5t224.5 150.5t274 55t274 -55t224.5 -150.5t150.5 -223.5t55 -273zM1391 684q0 121 -45.5 228.5t-124 188.5t-184 128t-228.5 47
t-228.5 -47t-184.5 -128t-124 -188.5t-45 -228.5t45 -229.5t124 -189.5t184.5 -129t228.5 -48t228.5 48t184 129t124 189.5t45.5 229.5zM731 651h-72v-354h-120v801h266q187 0 230.5 -77t43.5 -125q0 -88 -59 -139.5t-141 -64.5q51 -10 78.5 -36.5t46.5 -67.5l131 -291h-129
l-111 250q-22 58 -56.5 81t-107.5 23zM750 750q202 0 202 133q0 98 -83 107t-121 9h-89v-249h91z" />
    <glyph glyph-name="macron" unicode="&#xaf;" horiz-adv-x="446" 
d="M-27 1286v105h502v-105h-502z" />
    <glyph glyph-name="macron" unicode="&#x2c9;" horiz-adv-x="446" 
d="M-27 1286v105h502v-105h-502z" />
    <glyph glyph-name="degree" unicode="&#xb0;" horiz-adv-x="819" 
d="M195 883.5q-89 82.5 -89 207.5t88.5 210t215.5 85t215 -84.5t88 -210.5t-88.5 -208t-214.5 -82t-215 82.5zM410 1286q-86 0 -143.5 -52t-57.5 -137t59.5 -140.5t140.5 -55.5t141 54.5t60 140.5t-57 138t-143 52z" />
    <glyph glyph-name="plusminus" unicode="&#xb1;" horiz-adv-x="1228" 
d="M682 545v-357h-133v357h-449v123h449v358h133v-358h448v-123h-448zM100 -27v123h1030v-123h-1030z" />
    <glyph glyph-name="twosuperior" unicode="&#xb2;" horiz-adv-x="876" 
d="M382 1386q145 0 228.5 -62.5t83.5 -174.5q0 -133 -114.5 -230.5t-151.5 -132.5l-139 -129h420v-104h-572v106l189 175q33 31 133 118.5t100 181.5q0 73 -48 107.5t-126 34.5t-209 -59l-6 116q131 53 212 53z" />
    <glyph glyph-name="threesuperior" unicode="&#xb3;" horiz-adv-x="870" 
d="M341 1386q151 0 244 -50t93 -154q0 -78 -52.5 -130.5t-131.5 -70.5q82 -10 141 -60t59 -123q0 -131 -101.5 -193t-241.5 -62q-141 0 -236 30l8 113q89 -35 225 -35t174.5 54.5t38.5 92.5q0 68 -63 99t-150 31h-117v100h101q84 0 148.5 34.5t64.5 98.5q0 65 -59.5 91
t-152.5 26t-188 -35l-6 107q123 36 202 36z" />
    <glyph glyph-name="acute" unicode="&#xb4;" horiz-adv-x="446" 
d="M252 1198h-125l147 279h175z" />
    <glyph glyph-name="mu" unicode="&#xb5;" 
d="M297 -442h-150v1462h150v-606q0 -143 31.5 -200.5t76.5 -83.5t121 -26q143 0 209 104t66 261v551h147v-780q0 -142 10 -240h-135l-8 176q-111 -196 -313 -196q-124 0 -205 79v-501z" />
    <glyph glyph-name="mu" unicode="&#x3bc;" 
d="M297 -442h-150v1462h150v-606q0 -143 31.5 -200.5t76.5 -83.5t121 -26q143 0 209 104t66 261v551h147v-780q0 -142 10 -240h-135l-8 176q-111 -196 -313 -196q-124 0 -205 79v-501z" />
    <glyph glyph-name="paragraph" unicode="&#xb6;" horiz-adv-x="1107" 
d="M885 -221v1493h-258v-1493h-133v880q-167 0 -289.5 96.5t-122.5 272.5t123 266t327 90h488v-1605h-135z" />
    <glyph glyph-name="periodcentered" unicode="&#xb7;" horiz-adv-x="555" 
d="M190 545v180h177v-180h-177z" />
    <glyph glyph-name="periodcentered" unicode="&#x2219;" horiz-adv-x="555" 
d="M190 545v180h177v-180h-177z" />
    <glyph glyph-name="cedilla" unicode="&#xb8;" horiz-adv-x="446" 
d="M305 -229q-1 67 -85 67q-40 0 -79 -16l-22 35l100 143h76l-82 -109q23 9 76 9t94 -33t41 -80t-17.5 -74.5t-61.5 -54.5t-134 -27t-184 39l28 62q80 -33 133 -33q52 0 84.5 19.5t32.5 52.5z" />
    <glyph glyph-name="onesuperior" unicode="&#xb9;" horiz-adv-x="702" 
d="M301 545v694l-154 -117l-57 80l225 164h113v-821h-127z" />
    <glyph glyph-name="ordmasculine" unicode="&#xba;" horiz-adv-x="751" 
d="M377 748q-152 0 -237 89t-85 230t84 230t240 89t236.5 -87t80.5 -229t-83.5 -232t-235.5 -90zM520 1223q-45 61 -143 61q-140 0 -166.5 -87t-26.5 -126t11.5 -79t34 -71.5t59.5 -51t88 -19.5t87 19.5t68.5 65t32.5 136.5t-45 152z" />
    <glyph glyph-name="guillemotright" unicode="&#xbb;" horiz-adv-x="897" 
d="M567 113h-133l256 407l-256 408h133l271 -408zM215 113h-133l256 407l-256 408h133l270 -408z" />
    <glyph glyph-name="onequarter" unicode="&#xbc;" horiz-adv-x="1708" 
d="M1432 184v-184h-127v184h-418v117l399 520h146v-532h131v-105h-131zM397 -49h-121l869 1464h121zM301 545v694l-154 -117l-57 80l225 164h113v-821h-127zM1307 289v428l-328 -428h328z" />
    <glyph glyph-name="onehalf" unicode="&#xbd;" horiz-adv-x="1771" 
d="M1286 834q142 0 226.5 -63t84.5 -175q0 -133 -114.5 -230.5t-151.5 -132.5l-139 -129h420v-104h-572v106l189 175q33 31 133 118.5t100 181.5q0 73 -48 107.5t-126 34.5t-209 -59l-6 116q133 54 213 54zM397 -49h-121l869 1464h121zM301 545v694l-154 -117l-57 80
l225 164h113v-821h-127z" />
    <glyph glyph-name="threequarters" unicode="&#xbe;" horiz-adv-x="1918" 
d="M1642 184v-184h-126v184h-418v117l399 520h145v-532h130v-105h-130zM608 -49h-121l869 1464h121zM341 1386q151 0 244 -50t93 -154q0 -78 -52.5 -130.5t-131.5 -70.5q82 -10 141 -60t59 -123q0 -131 -101.5 -193t-241.5 -62q-141 0 -236 30l8 113q89 -35 225 -35
t174.5 54.5t38.5 92.5q0 68 -63 99t-150 31h-117v100h101q84 0 148.5 34.5t64.5 98.5q0 65 -59.5 91t-152.5 26t-188 -35l-6 107q123 36 202 36zM1518 289v428l-328 -428h328z" />
    <glyph glyph-name="questiondown" unicode="&#xbf;" horiz-adv-x="831" 
d="M403 838v182h177v-182h-177zM500 -367q-202 0 -312 90.5t-110 240.5t63.5 230t107.5 123t107.5 122.5t63.5 205.5v31h143v-27q0 -149 -59.5 -230t-100.5 -122t-100 -114t-59 -187t69.5 -169.5t182.5 -55.5t266 53l12 -139q-163 -52 -274 -52z" />
    <glyph glyph-name="Agrave" unicode="&#xc0;" horiz-adv-x="1300" 
d="M614 1483l-200 278h176l145 -278h-121zM1122 0l-141 371h-670l-145 -371h-158l545 1366h190l547 -1366h-168zM647 1235l-289 -733h574z" />
    <glyph glyph-name="Aacute" unicode="&#xc1;" horiz-adv-x="1298" 
d="M688 1483h-123l148 278h174zM1122 0l-141 371h-670l-145 -371h-158l545 1366h190l547 -1366h-168zM647 1235l-289 -733h574z" />
    <glyph glyph-name="Acircumflex" unicode="&#xc2;" horiz-adv-x="1298" 
d="M801 1483l-154 196l-153 -196h-134l211 278h152l211 -278h-133zM1122 0l-141 371h-670l-145 -371h-158l545 1366h190l547 -1366h-168zM647 1235l-289 -733h574z" />
    <glyph glyph-name="Atilde" unicode="&#xc3;" horiz-adv-x="1298" 
d="M948 1722q0 -70 -50.5 -136t-117.5 -66t-116.5 27.5t-75.5 41t-58 13.5t-58 -30t-26 -61h-98q0 79 51.5 141t117.5 62q67 0 121 -28.5t80.5 -41t58.5 -12.5t52.5 30t20.5 60h98zM1122 0l-141 371h-670l-145 -371h-158l545 1366h190l547 -1366h-168zM647 1235l-289 -733
h574z" />
    <glyph glyph-name="Adieresis" unicode="&#xc4;" horiz-adv-x="1298" 
d="M741 1534v176h133v-176h-133zM424 1534v176h135v-176h-135zM1122 0l-141 371h-670l-145 -371h-158l545 1366h190l547 -1366h-168zM647 1235l-289 -733h574z" />
    <glyph glyph-name="Aring" unicode="&#xc5;" horiz-adv-x="1298" 
d="M786.5 1491q-55.5 -57 -138.5 -57q-82 0 -139.5 55.5t-57.5 135.5t58.5 135t138.5 55q81 0 137.5 -56.5t56.5 -133.5t-55.5 -134zM1122 0l-141 371h-670l-145 -371h-158l545 1366h190l547 -1366h-168zM768 1623q0 50 -35 85t-86 35t-87 -35t-36 -85t37 -85t87 -35t85 35
t35 85zM647 1235l-289 -733h574z" />
    <glyph glyph-name="AE" unicode="&#xc6;" horiz-adv-x="1748" 
d="M936 0v371h-541l-227 -371h-176l856 1366h782v-133h-534v-469h506v-127h-506v-504h559v-133h-719zM936 502v751l-465 -751h465z" />
    <glyph glyph-name="Ccedilla" unicode="&#xc7;" horiz-adv-x="1206" 
d="M965 -213q0 -47 -17.5 -74.5t-62 -54.5t-133.5 -27t-185 39l29 62q80 -33 132 -33t84 19.5t32 52.5q0 67 -70 67q-52 0 -92 -16l-23 35l84 123q-297 20 -468 210t-171 495q0 306 197.5 503.5t505.5 197.5q199 0 321 -53l-12 -145q-126 59 -277 59q-273 0 -419 -158.5
t-146 -409.5t143 -406.5t396 -155.5q183 0 307 61l13 -139q-124 -62 -316 -62l-63 -86q23 9 76 9t94 -33t41 -80z" />
    <glyph glyph-name="Egrave" unicode="&#xc8;" horiz-adv-x="995" 
d="M504 1483l-199 278h174l148 -278h-123zM174 0v1366h705v-133h-543v-469h514v-127h-514v-504h565v-133h-727z" />
    <glyph glyph-name="Eacute" unicode="&#xc9;" horiz-adv-x="995" 
d="M549 1483h-123l147 278h175zM174 0v1366h705v-133h-543v-469h514v-127h-514v-504h565v-133h-727z" />
    <glyph glyph-name="Ecircumflex" unicode="&#xca;" horiz-adv-x="995" 
d="M674 1483l-152 196l-153 -196h-133l210 278h152l211 -278h-135zM174 0v1366h705v-133h-543v-469h514v-127h-514v-504h565v-133h-727z" />
    <glyph glyph-name="Edieresis" unicode="&#xcb;" horiz-adv-x="995" 
d="M621 1534v176h135v-176h-135zM303 1534v176h135v-176h-135zM174 0v1366h705v-133h-543v-469h514v-127h-514v-504h565v-133h-727z" />
    <glyph glyph-name="Igrave" unicode="&#xcc;" horiz-adv-x="507" 
d="M223 1483l-198 278h174l145 -278h-121zM176 0v1366h162v-1366h-162z" />
    <glyph glyph-name="Iacute" unicode="&#xcd;" horiz-adv-x="507" 
d="M289 1483h-125l147 278h174zM174 0v1366h162v-1366h-162z" />
    <glyph glyph-name="Icircumflex" unicode="&#xce;" horiz-adv-x="507" 
d="M408 1483l-154 196l-154 -196h-133l211 278h152l211 -278h-133zM174 0v1366h162v-1366h-162z" />
    <glyph glyph-name="Idieresis" unicode="&#xcf;" horiz-adv-x="507" 
d="M346 1534v176h135v-176h-135zM29 1534v176h135v-176h-135zM174 0v1366h162v-1366h-162z" />
    <glyph glyph-name="Eth" unicode="&#xd0;" horiz-adv-x="1333" 
d="M1022 167.5q-207 -167.5 -567 -167.5h-281v625h-151v123h151v618h356q332 0 515.5 -176t183.5 -516q0 -339 -207 -506.5zM1059 682q0 258 -137.5 404.5t-397.5 146.5h-188v-485h360v-123h-360v-492h115q451 0 529.5 199.5t78.5 349.5z" />
    <glyph glyph-name="Ntilde" unicode="&#xd1;" horiz-adv-x="1382" 
d="M1010 1722q0 -73 -51.5 -137.5t-117 -64.5t-114.5 27.5t-75.5 41t-59.5 13.5t-58.5 -30t-25.5 -61h-96q0 127 69.5 165t109.5 38q55 0 134 -41t114 -41q34 0 54 30t20 60h97zM326 0h-152v1366h227l658 -1198v1198h151v-1366h-227l-657 1198v-1198z" />
    <glyph glyph-name="Ograve" unicode="&#xd2;" horiz-adv-x="1435" 
d="M672 1483l-199 278h174l146 -278h-121zM1174 179.5q-159 -202.5 -457 -202.5q-299 0 -456 197.5t-157 503.5t160.5 507t458.5 201t454 -198t156 -502t-159 -506.5zM1161 682q0 231 -108.5 400t-332.5 169t-335 -172t-111 -397.5t113 -397t335 -171.5t330.5 169t108.5 400
z" />
    <glyph glyph-name="Oacute" unicode="&#xd3;" horiz-adv-x="1435" 
d="M764 1483h-121l145 278h177zM1174 179.5q-159 -202.5 -457 -202.5q-299 0 -456 197.5t-157 503.5t160.5 507t458.5 201t454 -198t156 -502t-159 -506.5zM1161 682q0 231 -108.5 400t-332.5 169t-335 -172t-111 -397.5t113 -397t335 -171.5t330.5 169t108.5 400z" />
    <glyph glyph-name="Ocircumflex" unicode="&#xd4;" horiz-adv-x="1435" 
d="M872 1483l-153 196l-152 -196h-135l211 278h152l211 -278h-134zM1174 179.5q-159 -202.5 -457 -202.5q-299 0 -456 197.5t-157 503.5t160.5 507t458.5 201t454 -198t156 -502t-159 -506.5zM1161 682q0 231 -108.5 400t-332.5 169t-335 -172t-111 -397.5t113 -397
t335 -171.5t330.5 169t108.5 400z" />
    <glyph glyph-name="Otilde" unicode="&#xd5;" horiz-adv-x="1435" 
d="M1018 1722q0 -73 -51.5 -137.5t-118 -64.5t-115.5 27.5t-75.5 41t-59.5 13.5t-57.5 -30t-24.5 -61h-96q0 126 69.5 164.5t109.5 38.5q57 0 135 -41t112 -41q35 0 55.5 30t20.5 60h96zM1174 179.5q-159 -202.5 -457 -202.5q-299 0 -456 197.5t-157 503.5t160.5 507
t458.5 201t454 -198t156 -502t-159 -506.5zM1161 682q0 231 -108.5 400t-332.5 169t-335 -172t-111 -397.5t113 -397t335 -171.5t330.5 169t108.5 400z" />
    <glyph glyph-name="Odieresis" unicode="&#xd6;" horiz-adv-x="1435" 
d="M809 1534v176h135v-176h-135zM492 1534v176h135v-176h-135zM1174 179.5q-159 -202.5 -457 -202.5q-299 0 -456 197.5t-157 503.5t160.5 507t458.5 201t454 -198t156 -502t-159 -506.5zM1161 682q0 231 -108.5 400t-332.5 169t-335 -172t-111 -397.5t113 -397t335 -171.5
t330.5 169t108.5 400z" />
    <glyph glyph-name="multiply" unicode="&#xd7;" 
d="M950 14l-393 398l-395 -396l-92 90l395 394l-395 395l90 92l395 -397l395 395l92 -90l-395 -395l395 -394z" />
    <glyph glyph-name="Oslash" unicode="&#xd8;" horiz-adv-x="1435" 
d="M1206 1159q131 -181 131 -480t-159 -500.5t-455 -201.5q-260 0 -416 152l-155 -180l-80 71l164 191q-127 181 -127 477q0 297 160 497.5t454 200.5q255 0 410 -147l151 176l82 -72zM723 1251q-222 0 -333 -171.5t-111 -379.5t81 -354l666 774q-118 131 -303 131z
M1056.5 282q108.5 169 108.5 385t-82 357l-665 -772q121 -139 305 -139q225 0 333.5 169z" />
    <glyph glyph-name="Ugrave" unicode="&#xd9;" horiz-adv-x="1331" 
d="M643 1483l-197 278h175l145 -278h-123zM1176 483q0 -233 -136.5 -369.5t-372 -136.5t-372.5 133t-137 371v885h161v-883q0 -166 89.5 -266t259.5 -100t258 101t88 265v883h162v-883z" />
    <glyph glyph-name="Uacute" unicode="&#xda;" horiz-adv-x="1331" 
d="M688 1483h-121l146 278h174zM1176 483q0 -233 -136.5 -369.5t-372 -136.5t-372.5 133t-137 371v885h161v-883q0 -166 89.5 -266t259.5 -100t258 101t88 265v883h162v-883z" />
    <glyph glyph-name="Ucircumflex" unicode="&#xdb;" horiz-adv-x="1331" 
d="M817 1483l-151 196l-156 -196h-133l213 278h151l209 -278h-133zM1176 483q0 -233 -136.5 -369.5t-372 -136.5t-372.5 133t-137 371v885h161v-883q0 -166 89.5 -266t259.5 -100t258 101t88 265v883h162v-883z" />
    <glyph glyph-name="Udieresis" unicode="&#xdc;" horiz-adv-x="1331" 
d="M758 1534v176h135v-176h-135zM440 1534v176h135v-176h-135zM1176 483q0 -233 -136.5 -369.5t-372 -136.5t-372.5 133t-137 371v885h161v-883q0 -166 89.5 -266t259.5 -100t258 101t88 265v883h162v-883z" />
    <glyph glyph-name="Yacute" unicode="&#xdd;" horiz-adv-x="1179" 
d="M629 1483h-121l145 278h176zM670 0h-162v569l-504 797h180l410 -666l410 666h174l-508 -797v-569z" />
    <glyph glyph-name="Thorn" unicode="&#xde;" horiz-adv-x="1040" 
d="M983 694q0 -190 -130.5 -292.5t-317.5 -102.5h-199v-299h-162v1366h162v-276h211q193 0 314.5 -102.5t121.5 -293.5zM815 696q0 129 -78 195.5t-202 66.5h-201v-528h104q179 0 246.5 36t99 88t31.5 142z" />
    <glyph glyph-name="germandbls" unicode="&#xdf;" horiz-adv-x="1126" 
d="M903 266q0 102 -76.5 154.5t-130 80t-99.5 63.5t-77 86t-31 155t97.5 168.5t249.5 75.5q0 224 -97.5 274.5t-171.5 50.5q-139 0 -203.5 -88.5t-64.5 -226.5v-1059h-149v1059q0 195 110 316.5t308 121.5t304.5 -131t106.5 -336v-80q-147 0 -206.5 -20.5t-93.5 -55
t-34 -90.5t31 -90.5t77 -64t177 -101t131 -262.5q0 -140 -91 -214.5t-230 -74.5t-257 48l13 133q110 -60 207 -60q200 0 200 168z" />
    <glyph glyph-name="agrave" unicode="&#xe0;" horiz-adv-x="1009" 
d="M461 1198l-199 279h174l148 -279h-123zM860 217q0 -138 12 -217h-145l-6 164q-43 -90 -132 -138.5t-171 -48.5q-161 0 -254.5 74.5t-93.5 214.5q0 185 153 270t410 85h80v49q0 117 -51.5 184.5t-199.5 67.5t-272 -82l-12 133q152 67 328 67q354 0 354 -381v-442zM713 512
h-29q-193 0 -281 -29.5t-134 -78t-46 -112.5t32.5 -129t170.5 -65q287 0 287 353v61z" />
    <glyph glyph-name="aacute" unicode="&#xe1;" horiz-adv-x="1009" 
d="M524 1198h-123l148 279h174zM860 217q0 -138 12 -217h-145l-6 164q-43 -90 -132 -138.5t-171 -48.5q-161 0 -254.5 74.5t-93.5 214.5q0 185 153 270t410 85h80v49q0 117 -51.5 184.5t-199.5 67.5t-272 -82l-12 133q152 67 328 67q354 0 354 -381v-442zM713 512h-29
q-193 0 -281 -29.5t-134 -78t-46 -112.5t32.5 -129t170.5 -65q287 0 287 353v61z" />
    <glyph glyph-name="acircumflex" unicode="&#xe2;" horiz-adv-x="1009" 
d="M653 1198l-153 197l-154 -197h-135l211 279h153l211 -279h-133zM860 217q0 -138 12 -217h-145l-6 164q-43 -90 -132 -138.5t-171 -48.5q-161 0 -254.5 74.5t-93.5 214.5q0 185 153 270t410 85h80v49q0 117 -51.5 184.5t-199.5 67.5t-272 -82l-12 133q152 67 328 67
q354 0 354 -381v-442zM713 512h-29q-193 0 -281 -29.5t-134 -78t-46 -112.5t32.5 -129t170.5 -65q287 0 287 353v61z" />
    <glyph glyph-name="atilde" unicode="&#xe3;" horiz-adv-x="1009" 
d="M807 1440q0 -72 -50 -137.5t-115.5 -65.5t-116 27.5t-77 41t-59.5 13.5t-58.5 -31t-25.5 -61h-98q0 74 50 139.5t134 65.5q52 0 107 -29t81.5 -42t58.5 -13t52.5 31.5t20.5 60.5h96zM860 217q0 -138 12 -217h-145l-6 164q-43 -90 -132 -138.5t-171 -48.5
q-161 0 -254.5 74.5t-93.5 214.5q0 185 153 270t410 85h80v49q0 117 -51.5 184.5t-199.5 67.5t-272 -82l-12 133q152 67 328 67q354 0 354 -381v-442zM713 512h-29q-193 0 -281 -29.5t-134 -78t-46 -112.5t32.5 -129t170.5 -65q287 0 287 353v61z" />
    <glyph glyph-name="adieresis" unicode="&#xe4;" horiz-adv-x="1009" 
d="M588 1247v178h135v-178h-135zM270 1247v178h136v-178h-136zM860 217q0 -138 12 -217h-145l-6 164q-43 -90 -132 -138.5t-171 -48.5q-161 0 -254.5 74.5t-93.5 214.5q0 185 153 270t410 85h80v49q0 117 -51.5 184.5t-199.5 67.5t-272 -82l-12 133q152 67 328 67
q354 0 354 -381v-442zM713 512h-29q-193 0 -281 -29.5t-134 -78t-46 -112.5t32.5 -129t170.5 -65q287 0 287 353v61z" />
    <glyph glyph-name="aring" unicode="&#xe5;" horiz-adv-x="1009" 
d="M492 1147q-81 0 -139 56t-58 135t58.5 133.5t138.5 54.5t137 -55t57 -133t-56.5 -134.5t-137.5 -56.5zM860 217q0 -138 12 -217h-145l-6 164q-43 -90 -132 -138.5t-171 -48.5q-161 0 -254.5 74.5t-93.5 214.5q0 185 153 270t410 85h80v49q0 117 -51.5 184.5t-199.5 67.5
t-272 -82l-12 133q152 67 328 67q354 0 354 -381v-442zM612 1336q0 50 -34.5 85t-86 35t-87 -35t-35.5 -85t36.5 -84.5t86.5 -34.5t85 34.5t35 84.5zM713 512h-29q-193 0 -281 -29.5t-134 -78t-46 -112.5t32.5 -129t170.5 -65q287 0 287 353v61z" />
    <glyph glyph-name="ae" unicode="&#xe6;" horiz-adv-x="1617" 
d="M487 1040q248 0 322 -178q55 84 141 132t190 48q199 0 298.5 -142.5t99.5 -362.5v-66h-682q0 -159 87 -265t241 -106q68 0 147.5 18.5t138.5 53.5l13 -139q-128 -53 -309 -53q-298 0 -396 208q-55 -104 -157.5 -157.5t-194.5 -53.5q-167 0 -261.5 66t-94.5 205
q0 338 557 338h84v84q0 117 -51.5 183.5t-176.5 66.5q-172 0 -293 -80l-12 133q152 67 309 67zM1386 582q0 223 -90 282.5t-187.5 59.5t-175 -110t-77.5 -232h530zM711 477h-33q-213 0 -297 -31.5t-121 -75.5t-37 -100t38 -115t178 -59q141 0 206.5 90t65.5 232v59z" />
    <glyph glyph-name="ccedilla" unicode="&#xe7;" horiz-adv-x="907" 
d="M643 -228q1 66 -83 66q-40 0 -81 -16l-20 35l82 120q-212 11 -332.5 161t-120.5 379q0 228 136 375.5t366 147.5q127 0 250 -43l-13 -133q-109 51 -207 51q-182 0 -277 -109.5t-95 -286.5t94 -297t275 -120q101 0 212 48l11 -134q-88 -32 -226 -39l-63 -86q23 9 76 9
t94 -33t41 -80t-17.5 -74.5t-61.5 -54.5t-134 -27t-184 39l28 62q80 -33 133 -33q52 0 84.5 19.5t32.5 53.5z" />
    <glyph glyph-name="egrave" unicode="&#xe8;" horiz-adv-x="1007" 
d="M485 1198l-196 279h174l145 -279h-123zM172 164q-84 105 -84 332q0 226 118.5 385t319.5 159t300.5 -144t99.5 -366v-61h-682q0 -159 87 -265t243 -106t286 72l12 -139q-134 -54 -286 -54t-241 41t-173 146zM774 580q0 224 -90 284t-189 60t-175 -111.5t-76 -232.5h530z
" />
    <glyph glyph-name="eacute" unicode="&#xe9;" horiz-adv-x="1007" 
d="M551 1198h-121l145 279h175zM172 164q-84 105 -84 332q0 226 118.5 385t319.5 159t300.5 -144t99.5 -366v-61h-682q0 -159 87 -265t243 -106t286 72l12 -139q-134 -54 -286 -54t-241 41t-173 146zM774 580q0 224 -90 284t-189 60t-175 -111.5t-76 -232.5h530z" />
    <glyph glyph-name="ecircumflex" unicode="&#xea;" horiz-adv-x="1007" 
d="M672 1198l-154 197l-153 -197h-134l211 279h152l211 -279h-133zM172 164q-84 105 -84 332q0 226 118.5 385t319.5 159t300.5 -144t99.5 -366v-61h-682q0 -159 87 -265t243 -106t286 72l12 -139q-134 -54 -286 -54t-241 41t-173 146zM774 580q0 224 -90 284t-189 60
t-175 -111.5t-76 -232.5h530z" />
    <glyph glyph-name="edieresis" unicode="&#xeb;" horiz-adv-x="1007" 
d="M610 1247v178h135v-178h-135zM293 1247v178h135v-178h-135zM172 164q-84 105 -84 332q0 226 118.5 385t319.5 159t300.5 -144t99.5 -366v-61h-682q0 -159 87 -265t243 -106t286 72l12 -139q-134 -54 -286 -54t-241 41t-173 146zM774 580q0 224 -90 284t-189 60
t-175 -111.5t-76 -232.5h530z" />
    <glyph glyph-name="igrave" unicode="&#xec;" horiz-adv-x="446" 
d="M199 1198l-199 279h174l145 -279h-120zM150 0v1020h149v-1020h-149z" />
    <glyph glyph-name="iacute" unicode="&#xed;" horiz-adv-x="446" 
d="M250 1198h-125l147 279h174zM150 0v1020h149v-1020h-149z" />
    <glyph glyph-name="icircumflex" unicode="&#xee;" horiz-adv-x="446" 
d="M377 1198l-154 197l-153 -197h-133l210 279h152l211 -279h-133zM150 0v1020h149v-1020h-149z" />
    <glyph glyph-name="idieresis" unicode="&#xef;" horiz-adv-x="446" 
d="M315 1247v178h136v-178h-136zM-2 1247v178h135v-178h-135zM150 0v1020h149v-1020h-149z" />
    <glyph glyph-name="eth" unicode="&#xf0;" horiz-adv-x="1128" 
d="M1042 578q0 -262 -121 -431.5t-352 -169.5q-232 0 -356.5 144t-124.5 374t123 375.5t330 145.5t331 -156q-58 240 -231 377l-221 -131l-66 84l191 113q-99 65 -264 102l69 92q151 -20 312 -123l206 123l66 -84l-174 -104q282 -254 282 -731zM804.5 779
q-78.5 112 -239.5 112q-160 0 -238.5 -115t-78.5 -278t80.5 -279.5t237.5 -116.5t237 116.5t80 282.5t-78.5 278z" />
    <glyph glyph-name="ntilde" unicode="&#xf1;" horiz-adv-x="1103" 
d="M856 1440q0 -74 -51.5 -138.5t-115.5 -64.5t-115.5 27.5t-78 41t-59.5 13.5t-57.5 -31t-24.5 -61h-98q0 76 50.5 140.5t131.5 64.5q50 0 107 -29t83.5 -42t58.5 -13t51.5 31.5t19.5 60.5h98zM612 1040q185 0 263.5 -107t78.5 -300v-633h-147v604q0 144 -33 201
t-78.5 82.5t-121.5 25.5q-143 0 -209 -103.5t-66 -260.5v-549h-149v780q0 132 -11 240h137l7 -178q111 198 329 198z" />
    <glyph glyph-name="ograve" unicode="&#xf2;" horiz-adv-x="1128" 
d="M530 1198l-198 279h174l147 -279h-123zM216 890q128 150 355 150t349 -145.5t122 -377.5t-124 -386t-352.5 -154t-353 152t-124.5 381.5t128 379.5zM805 799q-78 116 -238 116t-239.5 -118t-79.5 -335.5t116.5 -288.5t200.5 -71t144.5 37t117 124t56.5 253q0 167 -78 283
z" />
    <glyph glyph-name="oacute" unicode="&#xf3;" horiz-adv-x="1128" 
d="M594 1198h-121l145 279h177zM216 890q128 150 355 150t349 -145.5t122 -377.5t-124 -386t-352.5 -154t-353 152t-124.5 381.5t128 379.5zM805 799q-78 116 -238 116t-239.5 -118t-79.5 -335.5t116.5 -288.5t200.5 -71t144.5 37t117 124t56.5 253q0 167 -78 283z" />
    <glyph glyph-name="ocircumflex" unicode="&#xf4;" horiz-adv-x="1128" 
d="M717 1198l-154 197l-153 -197h-134l211 279h152l211 -279h-133zM216 890q128 150 355 150t349 -145.5t122 -377.5t-124 -386t-352.5 -154t-353 152t-124.5 381.5t128 379.5zM805 799q-78 116 -238 116t-239.5 -118t-79.5 -335.5t116.5 -288.5t200.5 -71t144.5 37t117 124
t56.5 253q0 167 -78 283z" />
    <glyph glyph-name="otilde" unicode="&#xf5;" horiz-adv-x="1128" 
d="M864 1440q0 -75 -51 -139t-114.5 -64t-115 27.5t-78.5 41t-59 13.5t-58 -31t-26 -61h-98q0 76 50.5 140.5t131.5 64.5q50 0 107 -29t84 -42t59 -13t51 31.5t19 60.5h98zM216 890q128 150 355 150t349 -145.5t122 -377.5t-124 -386t-352.5 -154t-353 152t-124.5 381.5
t128 379.5zM805 799q-78 116 -238 116t-239.5 -118t-79.5 -335.5t116.5 -288.5t200.5 -71t144.5 37t117 124t56.5 253q0 167 -78 283z" />
    <glyph glyph-name="odieresis" unicode="&#xf6;" horiz-adv-x="1128" 
d="M655 1247v178h133v-178h-133zM338 1247v178h135v-178h-135zM216 890q128 150 355 150t349 -145.5t122 -377.5t-124 -386t-352.5 -154t-353 152t-124.5 381.5t128 379.5zM805 799q-78 116 -238 116t-239.5 -118t-79.5 -335.5t116.5 -288.5t200.5 -71t144.5 37t117 124
t56.5 253q0 167 -78 283z" />
    <glyph glyph-name="divide" unicode="&#xf7;" 
d="M662 868q0 -45 -31 -75.5t-75 -30.5t-74.5 30.5t-30.5 75.5t29.5 77t74.5 32t76 -32t31 -77zM41 438v123h1030v-123h-1030zM662 131q0 -45 -31 -76.5t-76 -31.5t-74.5 31.5t-29.5 76.5t30.5 76t74.5 31t75 -31t31 -76z" />
    <glyph glyph-name="oslash" unicode="&#xf8;" horiz-adv-x="1128" 
d="M944 868q100 -137 100 -360t-124 -377t-353 -154q-187 0 -311 111l-125 -145l-76 55l138 158q-103 140 -103 363t125.5 372t351.5 149q190 0 312 -104l120 139l76 -55zM782 829q-78 86 -226 86t-227 -118t-79 -265q0 -146 57 -256zM352 199q83 -97 228 -97t225 123
t80 277t-54 250z" />
    <glyph glyph-name="ugrave" unicode="&#xf9;" horiz-adv-x="1095" 
d="M516 1198l-197 279h175l145 -279h-123zM485 -23q-340 0 -340 410v633h150v-606q0 -143 31.5 -200.5t75.5 -83.5t121 -26q143 0 209.5 104t66.5 261v551h147v-780q0 -142 10 -240h-135l-8 176q-112 -199 -328 -199z" />
    <glyph glyph-name="uacute" unicode="&#xfa;" horiz-adv-x="1095" 
d="M578 1198h-121l145 279h174zM485 -23q-340 0 -340 410v633h150v-606q0 -143 31.5 -200.5t75.5 -83.5t121 -26q143 0 209.5 104t66.5 261v551h147v-780q0 -142 10 -240h-135l-8 176q-112 -199 -328 -199z" />
    <glyph glyph-name="ucircumflex" unicode="&#xfb;" horiz-adv-x="1095" 
d="M702 1198l-153 197l-154 -197h-135l211 279h154l211 -279h-134zM485 -23q-340 0 -340 410v633h150v-606q0 -143 31.5 -200.5t75.5 -83.5t121 -26q143 0 209.5 104t66.5 261v551h147v-780q0 -142 10 -240h-135l-8 176q-112 -199 -328 -199z" />
    <glyph glyph-name="udieresis" unicode="&#xfc;" horiz-adv-x="1095" 
d="M639 1247v178h135v-178h-135zM322 1247v178h135v-178h-135zM485 -23q-340 0 -340 410v633h150v-606q0 -143 31.5 -200.5t75.5 -83.5t121 -26q143 0 209.5 104t66.5 261v551h147v-780q0 -142 10 -240h-135l-8 176q-112 -199 -328 -199z" />
    <glyph glyph-name="yacute" unicode="&#xfd;" horiz-adv-x="909" 
d="M514 1198h-121l146 279h174zM171 -338q117 0 187 236l21 67l-354 1055h161l275 -879l272 879h156l-410 -1198q-45 -133 -94 -187.5t-95 -77t-102 -22.5t-125 16l13 130q55 -19 95 -19z" />
    <glyph glyph-name="thorn" unicode="&#xfe;" horiz-adv-x="1112" 
d="M923.5 134.5q-102.5 -157.5 -313.5 -157.5q-100 0 -186 49.5t-125 139.5v-608h-149v1919h149v-629q39 90 128 141t195 51t185.5 -44t149 -148t69.5 -330t-102.5 -383.5zM801 800q-63 113 -215 113q-153 0 -223 -122t-70 -279t69.5 -282.5t221.5 -125.5q151 0 215.5 120
t64.5 291.5t-63 284.5z" />
    <glyph glyph-name="ydieresis" unicode="&#xff;" horiz-adv-x="909" 
d="M555 1247v178h133v-178h-133zM238 1247v178h135v-178h-135zM171 -338q117 0 187 236l21 67l-354 1055h161l275 -879l272 879h156l-410 -1198q-45 -133 -94 -187.5t-95 -77t-102 -22.5t-125 16l13 130q55 -19 95 -19z" />
    <glyph glyph-name="dotlessi" unicode="&#x131;" horiz-adv-x="446" 
d="M150 0v1020h149v-1020h-149z" />
    <glyph glyph-name="Lslash" unicode="&#x141;" horiz-adv-x="925" 
d="M174 0v598l-154 -147v135l154 147v633h162v-504l278 268v-137l-278 -268v-586h553v-139h-715z" />
    <glyph glyph-name="lslash" unicode="&#x142;" horiz-adv-x="446" 
d="M301 0h-151v670l-140 -140v136l140 137v674h151v-553l141 139v-135l-141 -140v-788z" />
    <glyph glyph-name="OE" unicode="&#x152;" horiz-adv-x="1787" 
d="M700 -23q-139 0 -254.5 55.5t-228.5 197.5t-113 448t160.5 507t454.5 201q162 0 272 -20h682v-133h-536v-467h508v-127h-508v-506h557v-133h-703q-152 -23 -291 -23zM723 1251q-123 0 -208 -50t-139 -131t-80 -183.5t-26 -268.5t115 -335.5t334 -169.5q153 0 256 22v1094
q-129 22 -252 22z" />
    <glyph glyph-name="oe" unicode="&#x153;" horiz-adv-x="1794" 
d="M1311 1040q203 0 302 -143t99 -362v-66h-680q0 -158 85.5 -264.5t240.5 -106.5q107 0 183.5 28t105.5 44l12 -139q-130 -54 -309 -54q-283 0 -398 224q-125 -224 -393 -224q-227 0 -349 154.5t-122 379.5q0 226 127 377.5t344 151.5q282 0 399 -223q121 223 353 223z
M1561 580q0 225 -90.5 284.5t-189 59.5t-174 -112t-75.5 -232h529zM801 799q-78 116 -239 116t-238.5 -119t-77.5 -283.5t78.5 -287.5t236 -123t238 124t80.5 290q0 167 -78 283z" />
    <glyph glyph-name="Scaron" unicode="&#x160;" horiz-adv-x="991" 
d="M573 1483h-151l-211 278h133l154 -196l151 196h135zM553 1251q-197 0 -244 -77.5t-47 -129.5q0 -84 58.5 -138t146.5 -97l141 -76q143 -78 217 -157.5t74 -190.5q0 -199 -135 -303.5t-328 -104.5t-330 58l11 158q128 -80 325 -80t243 93.5t46 149.5q0 92 -63 149.5
t-181 119.5l-141 75q-118 65 -184 139.5t-66 177.5q0 183 136 276t305 93t290 -43l-12 -145q-104 53 -262 53z" />
    <glyph glyph-name="scaron" unicode="&#x161;" horiz-adv-x="796" 
d="M723 280q0 -80 -31 -135q-93 -165 -327 -168q-168 0 -291 48l12 139q114 -62 270 -64q86 0 150 42q63 42 63 116t-37 112q-59 63 -207 121t-212 143q-37 50 -37 126q0 139 104 209q104 71 244 71t256 -45l-12 -125q-101 48 -230 50q-206 0 -209 -156q0 -47 37 -79
q51 -44 203 -107q254 -106 254 -298zM481 1198h-151l-211 279h133l154 -199l153 199h133z" />
    <glyph glyph-name="Ydieresis" unicode="&#x178;" horiz-adv-x="1179" 
d="M684 1534v176h135v-176h-135zM369 1534v176h133v-176h-133zM670 0h-162v569l-504 797h180l410 -666l410 666h174l-508 -797v-569z" />
    <glyph glyph-name="Zcaron" unicode="&#x17d;" horiz-adv-x="1011" 
d="M580 1483h-150l-211 278h133l154 -196l149 196h133zM53 0v135l713 1096h-688v135h864v-135l-706 -1096h722v-135h-905z" />
    <glyph glyph-name="zcaron" unicode="&#x17e;" horiz-adv-x="868" 
d="M520 1198h-151l-211 279h135l153 -199l150 199h133zM61 0v121l576 780h-553v119h721v-121l-576 -780h580v-119h-748z" />
    <glyph glyph-name="florin" unicode="&#x192;" 
d="M857 1257q-79 0 -119 -67t-60 -162l-49 -209h223v-117h-248l-155 -745q-38 -178 -85 -259t-102 -122t-135 -41t-141 10l12 129q33 -8 88 -8q154 0 213 301l152 735h-222v117h246l51 221q33 159 103.5 252.5t218.5 93.5q65 0 123 -20l-13 -123q-59 14 -101 14z" />
    <glyph glyph-name="circumflex" unicode="&#x2c6;" horiz-adv-x="446" 
d="M377 1198l-154 197l-153 -197h-133l210 279h152l211 -279h-133z" />
    <glyph glyph-name="caron" unicode="&#x2c7;" horiz-adv-x="446" 
d="M299 1198h-152l-210 279h133l153 -199l154 199h133z" />
    <glyph glyph-name="breve" unicode="&#x2d8;" horiz-adv-x="446" 
d="M469 1454q0 -74 -38 -127t-85 -83t-122 -30q-130 0 -187 83.5t-57 156.5h88q6 -61 46 -103t109.5 -42t109.5 42t48 103h88z" />
    <glyph glyph-name="dotaccent" unicode="&#x2d9;" horiz-adv-x="446" 
d="M150 1247v178h149v-178h-149z" />
    <glyph glyph-name="ring" unicode="&#x2da;" horiz-adv-x="446" 
d="M362 1203q-58 -56 -139 -56t-137.5 55.5t-56.5 135.5q0 79 57 133.5t137 54.5t138.5 -54.5t58.5 -133.5t-58 -135zM346 1336q0 50 -36 85t-87 35t-86 -35t-35 -85t36 -84.5t86 -34.5t86 34.5t36 84.5z" />
    <glyph glyph-name="ogonek" unicode="&#x2db;" horiz-adv-x="446" 
d="M324 0q-156 -93 -156 -196t112 -103q49 0 107 39l23 -66q-88 -43 -169 -43t-136.5 42t-55.5 118q0 124 195 209h80z" />
    <glyph glyph-name="tilde" unicode="&#x2dc;" horiz-adv-x="446" 
d="M522 1440q0 -74 -49.5 -138.5t-114 -64.5t-115 27.5t-78 41t-59.5 13.5t-57.5 -31t-25.5 -61h-99q0 76 50.5 140.5t131.5 64.5q52 0 107 -29t82 -42t59 -13t52 31.5t20 60.5h96z" />
    <glyph glyph-name="hungarumlaut" unicode="&#x2dd;" horiz-adv-x="446" 
d="M367 1198h-123l147 279h174zM18 1198h-122l147 279h174z" />
    <glyph glyph-name="Delta" unicode="&#x394;" horiz-adv-x="1536" 
d="M113 0l573 1376h160l577 -1376h-1310zM766 1239l-465 -1118h934z" />
    <glyph glyph-name="Delta" unicode="&#x2206;" horiz-adv-x="1536" 
d="M113 0l573 1376h160l577 -1376h-1310zM766 1239l-465 -1118h934z" />
    <glyph glyph-name="Omega" unicode="&#x3a9;" horiz-adv-x="1536" 
d="M1384 836q0 -206 -113 -364t-300 -196v-149h411v-127h-538v362q175 4 285 135.5t110 315.5q0 185 -139 322t-333 137q-193 0 -330.5 -137.5t-137.5 -321.5t109 -314.5t284 -136.5v-362h-538v127h411v149q-183 35 -297 193.5t-114 349.5q0 125 51 231.5t136 183.5
t195.5 120t231.5 43t232.5 -43t196.5 -120t136 -183.5t51 -214.5z" />
    <glyph glyph-name="Omega" unicode="&#x2126;" horiz-adv-x="1536" 
d="M1384 836q0 -206 -113 -364t-300 -196v-149h411v-127h-538v362q175 4 285 135.5t110 315.5q0 185 -139 322t-333 137q-193 0 -330.5 -137.5t-137.5 -321.5t109 -314.5t284 -136.5v-362h-538v127h411v149q-183 35 -297 193.5t-114 349.5q0 125 51 231.5t136 183.5
t195.5 120t231.5 43t232.5 -43t196.5 -120t136 -183.5t51 -214.5z" />
    <glyph glyph-name="pi" unicode="&#x3c0;" horiz-adv-x="1331" 
d="M782 170v684h-311v-854h-133v854h-143v125h886v-125h-166v-657q0 -37 8.5 -68t44.5 -31t43 3l70 32v-117q-129 -66 -214 -25.5t-85 179.5z" />
    <glyph glyph-name="endash" unicode="&#x2013;" horiz-adv-x="1024" 
d="M0 578v114h1024v-114h-1024z" />
    <glyph glyph-name="emdash" unicode="&#x2014;" horiz-adv-x="2048" 
d="M0 578v114h2048v-114h-2048z" />
    <glyph glyph-name="quoteleft" unicode="&#x2018;" horiz-adv-x="555" 
d="M250 1032h-172l170 445h121z" />
    <glyph glyph-name="quoteright" unicode="&#x2019;" horiz-adv-x="555" 
d="M199 1032h-121l119 445h172z" />
    <glyph glyph-name="quotesinglbase" unicode="&#x201a;" horiz-adv-x="555" 
d="M199 -262h-121l119 444h172z" />
    <glyph glyph-name="quotedblleft" unicode="&#x201c;" horiz-adv-x="907" 
d="M602 1032h-170l170 445h119zM250 1032h-172l170 445h121z" />
    <glyph glyph-name="quotedblright" unicode="&#x201d;" horiz-adv-x="907" 
d="M551 1032h-121l119 445h172zM199 1032h-121l119 445h172z" />
    <glyph glyph-name="quotedblbase" unicode="&#x201e;" horiz-adv-x="907" 
d="M551 -262h-119l119 444h170zM199 -262h-121l119 444h172z" />
    <glyph glyph-name="dagger" unicode="&#x2020;" 
d="M635 877v-1139h-158v1139h-360v135h360v465h158v-465h360v-135h-360z" />
    <glyph glyph-name="daggerdbl" unicode="&#x2021;" 
d="M635 203v-465h-158v465h-360v135h360v539h-360v135h360v465h158v-465h360v-135h-360v-539h360v-135h-360z" />
    <glyph glyph-name="bullet" unicode="&#x2022;" 
d="M791 635q0 -49 -18.5 -91t-51.5 -74t-75 -50.5t-91 -18.5t-91 18.5t-74 50.5t-50 74t-18 91t18 91t50 73.5t74 50t91 18.5t91 -18.5t75 -50t51.5 -73.5t18.5 -91z" />
    <glyph glyph-name="ellipsis" unicode="&#x2026;" horiz-adv-x="2048" 
d="M1618 0v182h178v-182h-178zM936 0v182h178v-182h-178zM252 0v182h178v-182h-178z" />
    <glyph glyph-name="perthousand" unicode="&#x2030;" horiz-adv-x="2560" 
d="M2429 398q0 -171 -74 -296t-248 -125t-241.5 123.5t-67.5 298.5q0 279 108.5 350.5t201.5 71.5t156 -40t114 -126t51 -257zM1714 398q0 -171 -71 -296t-245 -125t-244.5 124t-70.5 298q0 276 112 349t205 73t154.5 -40t110.5 -126t49 -257zM553 -49h-123l868 1464h123z
M693.5 668q-72.5 -125 -246.5 -125t-244 124t-70 298q0 278 111.5 349.5t205.5 71.5t155 -39.5t111 -126t50 -257.5q0 -170 -72.5 -295zM2296 309.5q0 223.5 -24.5 282.5t-63 90t-100.5 31t-98 -32t-53.5 -79t-21.5 -101.5t-4 -144t31.5 -180t182.5 -90.5t151 223.5z
M1217 488.5q0 -224.5 22.5 -281.5t59 -89t100 -32t99.5 32t54.5 79t23.5 101t5 146.5t-34.5 180.5t-147.5 88q-182 0 -182 -224.5zM449 1278q-183 0 -183 -224.5t22.5 -281.5t59.5 -89t100.5 -32t99.5 32t54.5 79t23.5 101.5t5 146t-34.5 180t-147.5 88.5z" />
    <glyph glyph-name="guilsinglleft" unicode="&#x2039;" horiz-adv-x="544" 
d="M330 113l-269 409l269 406h135l-258 -406l258 -409h-135z" />
    <glyph glyph-name="guilsinglright" unicode="&#x203a;" horiz-adv-x="544" 
d="M217 113h-135l256 407l-256 408h135l268 -408z" />
    <glyph glyph-name="fraction" unicode="&#x2044;" horiz-adv-x="346" 
d="M-201 -49h-121l869 1464h121z" />
    <glyph glyph-name="trademark" unicode="&#x2122;" horiz-adv-x="1875" 
d="M1640 545v731l-297 -731h-120l-303 731v-731h-121v821h200l289 -688l281 688h198v-821h-127zM408 1268v-723h-129v723h-269v98h668v-98h-270z" />
    <glyph glyph-name="partialdiff" unicode="&#x2202;" horiz-adv-x="1228" 
d="M546 1475q150 0 246.5 -71t176.5 -224.5t80 -432.5t-81 -472t-184.5 -247.5t-198.5 -54.5t-170 40t-127 105.5t-80 149.5t-28 219.5t108.5 258t290.5 122.5q181 0 332 -151v69q-22 592 -340 592q-147 0 -243 -108l-74 90q142 115 292 115zM907 618q-144 156 -295 156
q-150 0 -226.5 -102.5t-76.5 -248.5t76 -251.5t198 -105.5t209.5 117t114.5 435z" />
    <glyph glyph-name="product" unicode="&#x220f;" horiz-adv-x="1536" 
d="M1188 -410v1919h-836v-1919h-135v2048h1104v-2048h-133z" />
    <glyph glyph-name="summation" unicode="&#x2211;" horiz-adv-x="1536" 
d="M164 -410v123l561 918l-522 891v116h1165v-118h-1006l523 -889l-563 -912h1081v-129h-1239z" />
    <glyph glyph-name="minus" unicode="&#x2212;" 
d="M41 440v121h1030v-121h-1030z" />
    <glyph glyph-name="radical" unicode="&#x221a;" horiz-adv-x="1228" 
d="M721 -410h-119l-323 707l-95 -45l-47 92l209 96l305 -678l328 1876h115z" />
    <glyph glyph-name="infinity" unicode="&#x221e;" horiz-adv-x="1591" 
d="M1370 274q-90 -94 -239 -94t-223 92.5t-107 139.5q-90 -116 -161.5 -170t-196.5 -54t-217.5 92.5t-92.5 227.5t90 229t236 94t224.5 -94t109.5 -139q90 116 159 171.5t195 55.5t219.5 -91.5t93.5 -228.5t-90 -231zM1290 651q-60 62 -141 62q-104 0 -180 -94.5
t-101 -122.5q27 -35 91 -121t186 -86q86 0 145.5 63.5t59.5 150.5q0 86 -60 148zM450 723q-44 0 -82 -17.5t-66 -46t-44 -67.5t-16 -104t58.5 -127t145.5 -62q109 0 179.5 93t99.5 124q-75 99 -113.5 133.5t-78 54t-83.5 19.5z" />
    <glyph glyph-name="integral" unicode="&#x222b;" 
d="M629 1266v-1385q0 -148 -35 -213t-90 -99t-144 -34t-133 21l13 125q43 -21 98 -21q145 -1 145 217v1385q0 144 36 211t91.5 101t146.5 34t128 -21l-13 -125q-43 20 -98 20q-145 2 -145 -216z" />
    <glyph glyph-name="approxequal" unicode="&#x2248;" horiz-adv-x="1228" 
d="M326 688q-66 0 -107 -49t-51 -115h-92q30 200 110 244.5t148 44.5t142.5 -23.5t147 -51t143.5 -51t139 -23.5t106.5 47t52.5 112h88q-9 -113 -73 -197.5t-183 -84.5q-92 0 -228.5 50t-206.5 73.5t-136 23.5zM332 463q97 0 289 -74t273 -74q137 0 171 160h88
q-14 -187 -102 -236t-154 -49t-140.5 24t-149.5 51.5t-145 51t-136 23.5t-107 -49t-51 -115h-92q43 287 256 287z" />
    <glyph glyph-name="notequal" unicode="&#x2260;" 
d="M41 244v123h371l139 266h-510v123h575l158 301l109 -56l-131 -245h319v-123h-385l-141 -266h526v-123h-590l-155 -293l-107 57l127 236h-305z" />
    <glyph glyph-name="lessequal" unicode="&#x2264;" 
d="M41 539v135l1030 385v-135l-860 -318l860 -321v-133zM41 -57v123h1030v-123h-1030z" />
    <glyph glyph-name="greaterequal" unicode="&#x2265;" 
d="M41 152v133l858 321l-858 318v135l1030 -385v-135zM41 -57v123h1030v-123h-1030z" />
    <glyph glyph-name="lozenge" unicode="&#x25ca;" horiz-adv-x="1228" 
d="M678 0h-129l-348 819l348 819h129l352 -819zM614 1501l-280 -682l280 -682l281 682z" />
    <glyph glyph-name="fi" unicode="&#xfb01;" horiz-adv-x="1073" 
d="M774 1247v178h150v-178h-150zM774 0v1020h150v-1020h-150zM536 1372q-96 0 -120.5 -64t-24.5 -151v-137h227v-119h-227v-901h-149v901h-199v119h199v131q0 147 36.5 213t91 99.5t145.5 33.5t134 -20l-12 -125q-46 20 -101 20z" />
    <glyph glyph-name="fl" unicode="&#xfb02;" horiz-adv-x="1073" 
d="M774 0v1477h150v-1477h-150zM536 1372q-96 0 -120.5 -64t-24.5 -151v-137h227v-119h-227v-901h-149v901h-199v119h199v131q0 147 36.5 213t91 99.5t145.5 33.5t134 -20l-12 -125q-46 20 -101 20z" />
    </font>
</defs>
</svg>
